# xmcd CD database file
#
# Track frame offsets:
#	150
#	29367
#	67415
#	100242
#	119882
#	162890
#	190027
#	216715
#	243497
#
# Disc length: 3632 seconds
#
# Revision: 0
# Processed by: cddbd v1.5PL3 Copyright (c) Steve Scherf et al.
# Submitted via: CDex 1.50
#
DISCID=8e0e2e09
DTITLE=Fredrik Ljungkvist Quartet - Fallin' Papers
DYEAR=1995
DGENRE=Jazz
TTITLE0=Flykt
TTITLE1=Den grå zonen
TTITLE2=Piano
TTITLE3=Vilse i förorten
TTITLE4=Fallin' papers
TTITLE5=You always remember how
TTITLE6=I snickarboa
TTITLE7=Next door
TTITLE8=Nänå
EXTD=YEAR: 1995
EXTT0=
EXTT1=
EXTT2=
EXTT3=
EXTT4=
EXTT5=
EXTT6=
EXTT7=
EXTT8=
PLAYORDER=
